<mxfile host="app.diagrams.net" agent="Mozilla/5.0 (Windows NT 10.0; Win64; x64) AppleWebKit/537.36 (KHTML, like Gecko) Chrome/131.0.0.0 Safari/537.36" version="25.0.1">
  <diagram id="C5RBs43oDa-KdzZeNtuy" name="Page-1">
    <mxGraphModel grid="1" page="1" gridSize="10" guides="1" tooltips="1" connect="1" arrows="1" fold="1" pageScale="1" pageWidth="827" pageHeight="1169" math="0" shadow="0">
      <root>
        <mxCell id="WIyWlLk6GJQsqaUBKTNV-0" />
        <mxCell id="WIyWlLk6GJQsqaUBKTNV-1" parent="WIyWlLk6GJQsqaUBKTNV-0" />
        <mxCell id="KBU6CL0j9ojBfxavuMV_-2" value="" style="edgeStyle=none;curved=1;rounded=0;orthogonalLoop=1;jettySize=auto;html=1;fontSize=12;startSize=8;endSize=8;" edge="1" parent="WIyWlLk6GJQsqaUBKTNV-1" source="KBU6CL0j9ojBfxavuMV_-0" target="KBU6CL0j9ojBfxavuMV_-1">
          <mxGeometry relative="1" as="geometry" />
        </mxCell>
        <mxCell id="KBU6CL0j9ojBfxavuMV_-0" value="INICIO" style="ellipse;whiteSpace=wrap;html=1;aspect=fixed;" vertex="1" parent="WIyWlLk6GJQsqaUBKTNV-1">
          <mxGeometry x="190" y="80" width="80" height="80" as="geometry" />
        </mxCell>
        <mxCell id="KBU6CL0j9ojBfxavuMV_-4" value="" style="edgeStyle=none;curved=1;rounded=0;orthogonalLoop=1;jettySize=auto;html=1;fontSize=12;startSize=8;endSize=8;" edge="1" parent="WIyWlLk6GJQsqaUBKTNV-1" source="KBU6CL0j9ojBfxavuMV_-1" target="KBU6CL0j9ojBfxavuMV_-3">
          <mxGeometry relative="1" as="geometry" />
        </mxCell>
        <mxCell id="KBU6CL0j9ojBfxavuMV_-1" value="Mostrar mensaje: &quot;Por favor, ingrese una palabra: &quot;" style="shape=parallelogram;perimeter=parallelogramPerimeter;whiteSpace=wrap;html=1;fixedSize=1;fillColor=#fff2cc;strokeColor=#d6b656;" vertex="1" parent="WIyWlLk6GJQsqaUBKTNV-1">
          <mxGeometry x="150" y="290" width="140" height="80" as="geometry" />
        </mxCell>
        <mxCell id="KBU6CL0j9ojBfxavuMV_-6" value="" style="edgeStyle=none;curved=1;rounded=0;orthogonalLoop=1;jettySize=auto;html=1;fontSize=12;startSize=8;endSize=8;" edge="1" parent="WIyWlLk6GJQsqaUBKTNV-1" source="KBU6CL0j9ojBfxavuMV_-3" target="KBU6CL0j9ojBfxavuMV_-5">
          <mxGeometry relative="1" as="geometry" />
        </mxCell>
        <mxCell id="KBU6CL0j9ojBfxavuMV_-3" value="Definir la variable cantidad_letras y asignarle la Longitud de palabra_ingresada" style="whiteSpace=wrap;html=1;fillColor=#dae8fc;strokeColor=#6c8ebf;" vertex="1" parent="WIyWlLk6GJQsqaUBKTNV-1">
          <mxGeometry x="130" y="450" width="200" height="150" as="geometry" />
        </mxCell>
        <mxCell id="KBU6CL0j9ojBfxavuMV_-8" value="" style="edgeStyle=none;curved=1;rounded=0;orthogonalLoop=1;jettySize=auto;html=1;fontSize=12;startSize=8;endSize=8;" edge="1" parent="WIyWlLk6GJQsqaUBKTNV-1" source="KBU6CL0j9ojBfxavuMV_-5" target="KBU6CL0j9ojBfxavuMV_-7">
          <mxGeometry relative="1" as="geometry" />
        </mxCell>
        <mxCell id="KBU6CL0j9ojBfxavuMV_-5" value="Mostrar mensaje: &quot;La palabra ingresada tiene&quot;, cantidad_letras, &quot;letras&quot;" style="shape=parallelogram;perimeter=parallelogramPerimeter;whiteSpace=wrap;html=1;fixedSize=1;fillColor=#fff2cc;strokeColor=#d6b656;" vertex="1" parent="WIyWlLk6GJQsqaUBKTNV-1">
          <mxGeometry x="90" y="720" width="285" height="170" as="geometry" />
        </mxCell>
        <mxCell id="KBU6CL0j9ojBfxavuMV_-7" value="&lt;h2&gt;&lt;font style=&quot;font-size: 25px;&quot;&gt;FIN&lt;/font&gt;&lt;/h2&gt;" style="ellipse;whiteSpace=wrap;html=1;" vertex="1" parent="WIyWlLk6GJQsqaUBKTNV-1">
          <mxGeometry x="150" y="1050" width="167.5" height="145" as="geometry" />
        </mxCell>
      </root>
    </mxGraphModel>
  </diagram>
</mxfile>
